<svg width="32" height="32" viewBox="0 0 32 32" fill="none" xmlns="http://www.w3.org/2000/svg">
<path d="M10.737 23.695C8.28396 22.016 6.67596 19.197 6.67596 16C6.67596 12.939 8.15596 10.231 10.436 8.53099" stroke="#939395" stroke-width="1.9291" stroke-miterlimit="10" stroke-linecap="round"/>
<path d="M8.13096 5.44C4.91196 7.844 2.81696 11.674 2.81696 16C2.81696 20.52 5.09296 24.505 8.55996 26.88" stroke="#FF2D55" stroke-width="1.9291" stroke-miterlimit="10" stroke-linecap="round"/>
<path d="M21.263 8.30499C23.713 9.98599 25.325 12.805 25.325 16C25.325 19.061 23.845 21.77 21.565 23.469" stroke="#FF2D55" stroke-width="1.9291" stroke-miterlimit="10" stroke-linecap="round"/>
<path d="M23.867 26.561C27.088 24.157 29.181 20.328 29.181 16C29.181 11.481 26.906 7.496 23.439 5.12" stroke="#FF2D55" stroke-width="1.9291" stroke-miterlimit="10" stroke-linecap="round"/>
<path d="M12.914 20.512C11.476 19.527 10.533 17.874 10.533 16C10.533 14.207 11.401 12.619 12.736 11.622" stroke="#939395" stroke-width="1.9291" stroke-miterlimit="10" stroke-linecap="round"/>
<path d="M10.436 8.53099C8.15696 10.231 6.67596 12.939 6.67596 16C6.67596 19.197 8.28396 22.016 10.738 23.695" stroke="#FF2D55" stroke-width="1.9291" stroke-miterlimit="10" stroke-linecap="round"/>
<path d="M25.324 16C25.324 12.805 23.713 9.98499 21.262 8.30499" stroke="#FF2D55" stroke-width="1.9291" stroke-miterlimit="10" stroke-linecap="round"/>
<path d="M19.084 11.49C20.522 12.474 21.466 14.127 21.466 16C21.466 17.795 20.597 19.383 19.262 20.379" stroke="#939395" stroke-width="1.9291" stroke-miterlimit="10" stroke-linecap="round"/>
<path d="M19.262 20.379C20.597 19.383 21.466 17.795 21.466 16C21.466 14.127 20.522 12.475 19.084 11.49" stroke="#FF2D55" stroke-width="1.9291" stroke-miterlimit="10" stroke-linecap="round"/>
<path d="M12.736 11.622C11.401 12.619 10.533 14.207 10.533 16C10.533 17.874 11.476 19.526 12.914 20.512" stroke="#FF2D55" stroke-width="1.9291" stroke-miterlimit="10" stroke-linecap="round"/>
<path d="M15.9999 18.118C17.0659 18.118 17.9299 17.2539 17.9299 16.188C17.9299 15.1221 17.0659 14.258 15.9999 14.258C14.934 14.258 14.0699 15.1221 14.0699 16.188C14.0699 17.2539 14.934 18.118 15.9999 18.118Z" fill="#FF2D55"/>
</svg>
